<svg width="20" height="20" viewBox="0 0 20 20" fill="none" xmlns="http://www.w3.org/2000/svg">
<path d="M15 10.125H5C4.96985 10.125 4.93857 10.1127 4.91293 10.0871C4.88728 10.0614 4.875 10.0301 4.875 10C4.875 9.96985 4.88728 9.93857 4.91293 9.91293C4.93857 9.88728 4.96985 9.875 5 9.875H15C15.0301 9.875 15.0614 9.88728 15.0871 9.91293C15.1127 9.93857 15.125 9.96985 15.125 10C15.125 10.0301 15.1127 10.0614 15.0871 10.0871C15.0614 10.1127 15.0301 10.125 15 10.125Z" fill="white" stroke="white"/>
<path d="M10 15.625C9.65833 15.625 9.375 15.3417 9.375 15V5C9.375 4.65833 9.65833 4.375 10 4.375C10.3417 4.375 10.625 4.65833 10.625 5V15C10.625 15.3417 10.3417 15.625 10 15.625Z" fill="white"/>
</svg>
