<svg width="40" height="36" viewBox="0 0 40 36" fill="none" xmlns="http://www.w3.org/2000/svg">
<rect x="6" y="5" width="28" height="26" fill="currentColor"/>
<rect width="28.3981" height="5" transform="matrix(1 0 0 -1 6 35)" fill="currentColor"/>
<path fill-rule="evenodd" clip-rule="evenodd" d="M40 0H0V36H40V0ZM23.2463 10.5989C23.2463 10.1609 23.1882 9.75558 23.0482 9.41677C22.9068 9.07464 22.6569 8.74866 22.2573 8.59863C21.858 8.44874 21.4555 8.52939 21.124 8.69289C20.7954 8.85496 20.4841 9.12066 20.1948 9.44912L13.2634 17.3236L13.2603 17.3272C12.7865 17.873 12.4392 18.6068 12.7551 19.3037C13.0717 20.0022 13.8535 20.222 14.5755 20.222H16.718V26.1276C16.718 26.5656 16.7761 26.971 16.9161 27.3098C17.0575 27.6519 17.3073 27.9779 17.707 28.1279C18.1062 28.2778 18.5087 28.1972 18.8402 28.0337C19.1688 27.8716 19.4801 27.6059 19.7695 27.2774L26.6994 19.4046L26.7001 19.4039C27.18 18.8617 27.5327 18.1275 27.2164 17.4271C26.9002 16.727 26.1159 16.5046 25.3888 16.5046H23.2463V10.5989ZM21.7315 9.92464C21.6181 9.98059 21.4442 10.1085 21.2255 10.3568L21.2253 10.357L14.296 18.2291C14.1284 18.4226 14.0526 18.5711 14.0238 18.6641C14.013 18.6991 14.0099 18.7219 14.0093 18.735C14.0194 18.7429 14.038 18.7551 14.0702 18.7694C14.1581 18.8084 14.3192 18.8486 14.5755 18.8486H17.4047C17.7839 18.8486 18.0914 19.156 18.0914 19.5353V26.1276C18.0914 26.4588 18.1374 26.6692 18.1854 26.7853C18.1879 26.7914 18.1904 26.7971 18.1928 26.8024C18.1951 26.8077 18.1974 26.8125 18.1996 26.817C18.2092 26.813 18.2203 26.8081 18.2327 26.8019C18.3462 26.746 18.5201 26.618 18.7388 26.3697L18.7389 26.3696L25.6699 18.4955L25.6713 18.494C25.8412 18.3021 25.9178 18.1546 25.9467 18.0627C25.9574 18.0288 25.9606 18.0066 25.9613 17.9938C25.9511 17.9857 25.9319 17.9731 25.8986 17.9583C25.8096 17.9187 25.647 17.878 25.3888 17.878H22.5596C22.1803 17.878 21.8729 17.5706 21.8729 17.1913V10.5989C21.8729 10.2678 21.8268 10.0574 21.7788 9.94126C21.7738 9.92905 21.769 9.91853 21.7646 9.90952C21.755 9.91353 21.744 9.9185 21.7315 9.92464ZM13.9991 18.7253C13.9992 18.7253 14 18.7261 14.0012 18.7279C13.9996 18.7262 13.999 18.7253 13.9991 18.7253ZM14.0094 18.7459C14.01 18.7479 14.0101 18.749 14.01 18.7491C14.0099 18.7491 14.0096 18.7481 14.0094 18.7459ZM18.1449 26.8334C18.145 26.8333 18.1463 26.8332 18.1487 26.8332C18.1461 26.8335 18.1449 26.8335 18.1449 26.8334ZM18.227 26.8628C18.2289 26.8644 18.2297 26.8654 18.2297 26.8655C18.2297 26.8656 18.2287 26.8648 18.227 26.8628ZM25.9714 18.0036C25.9713 18.0036 25.9705 18.0028 25.9693 18.001C25.9709 18.0026 25.9715 18.0035 25.9714 18.0036ZM25.9613 17.9831C25.9607 17.981 25.9606 17.9798 25.9607 17.9798C25.9608 17.9797 25.9611 17.9808 25.9613 17.9831ZM21.8193 9.89312C21.8193 9.89322 21.818 9.89341 21.8155 9.8934C21.8181 9.89302 21.8193 9.89303 21.8193 9.89312ZM21.7372 9.8638C21.7354 9.86216 21.7345 9.86114 21.7345 9.86105C21.7346 9.86095 21.7355 9.86178 21.7372 9.8638Z" fill="white"/>
</svg>
