<svg width="40" height="36" viewBox="0 0 40 36" fill="none" xmlns="http://www.w3.org/2000/svg">
<rect x="6" y="5" width="28" height="26" fill="#13100B"/>
<rect width="28" height="30" transform="matrix(1 0 0 -1 6 35)" fill="#26B34B"/>
<path fill-rule="evenodd" clip-rule="evenodd" d="M40 0H0V36H40V0ZM27.051 14.1747L20.0008 18.2583C19.7169 18.4231 19.3599 18.4231 19.0669 18.2583L12.0167 14.1747C11.5131 13.8817 11.3849 13.195 11.7695 12.7646C12.035 12.4625 12.3371 12.2153 12.6576 12.0413L17.6202 9.29446C18.6823 8.69931 20.4037 8.69931 21.4658 9.29446L26.4284 12.0413C26.7488 12.2153 27.051 12.4716 27.3165 12.7646C27.6827 13.195 27.5546 13.8817 27.051 14.1747ZM19.0117 19.9612V26.2057C19.0117 26.9016 18.3067 27.3594 17.6841 27.0572C15.7979 26.1325 12.6208 24.402 12.6208 24.402C11.5037 23.7702 10.5881 22.177 10.5881 20.8677V16.1432C10.5881 15.4198 11.3481 14.962 11.9707 15.3191L18.5539 19.1372C18.8286 19.3112 19.0117 19.6225 19.0117 19.9612ZM20.0554 26.2057V19.9612C20.0554 19.6225 20.2385 19.3112 20.5132 19.1372L27.0964 15.3191C27.719 14.962 28.479 15.4198 28.479 16.1432V20.8677C28.479 22.177 27.5634 23.7702 26.4463 24.402C26.4463 24.402 23.2692 26.1325 21.383 27.0572C20.7604 27.3594 20.0554 26.9016 20.0554 26.2057Z" fill="white"/>
</svg>
