<svg width="40" height="36" viewBox="0 0 40 36" fill="none" xmlns="http://www.w3.org/2000/svg">
<rect x="6" y="5" width="28" height="26" fill="currentColor"/>
<rect width="28.3981" height="5" transform="matrix(1 0 0 -1 6 35)" fill="currentColor"/>
<path fill-rule="evenodd" clip-rule="evenodd" d="M40 0H0V36H40V0ZM22.1812 8.676C21.529 8.31867 20.7191 8.15878 19.9468 8.16007C19.1756 8.16135 18.3666 8.32352 17.7171 8.68765L12.8295 11.3969L12.8293 11.397C12.1426 11.7773 11.5586 12.4164 11.148 13.1126C10.7374 13.809 10.4611 14.629 10.4611 15.4128V20.586C10.4611 21.3698 10.7374 22.1899 11.148 22.8862C11.5585 23.5823 12.1423 24.2212 12.8287 24.6016L12.8295 24.602L17.7177 27.3207L17.7194 27.3216C18.3687 27.6805 19.1796 27.8399 19.9514 27.8399C20.7232 27.8399 21.5342 27.6805 22.1835 27.3216L22.1851 27.3207L27.0733 24.602L27.0743 24.6015C27.7606 24.2212 28.3444 23.5823 28.7548 22.8862C29.1654 22.1899 29.4417 21.3698 29.4417 20.586V15.4128C29.4417 14.629 29.1654 13.809 28.7548 13.1126C28.3444 12.4166 27.7605 11.7776 27.0741 11.3973L27.0733 11.3969L22.1851 8.67813L22.1812 8.676ZM18.3877 9.88621C18.7817 9.66502 19.3453 9.53449 19.9491 9.53348C20.5517 9.53248 21.119 9.66062 21.5196 9.87953L21.5214 9.88051L26.408 12.5984C26.7282 12.7757 27.0494 13.0706 27.3255 13.4399L19.9465 17.7142L12.5723 13.4467C12.8495 13.0742 13.1727 12.7767 13.4948 12.5984L18.3844 9.88802L18.3877 9.88621ZM20.6334 18.9035L27.9493 14.6658C28.0273 14.9278 28.0683 15.182 28.0683 15.4128V20.586C28.0683 21.0658 27.8914 21.6466 27.5718 22.1886C27.2522 22.7306 26.8291 23.1673 26.408 23.4005L21.5192 26.1196L21.5184 26.12C21.2775 26.253 20.9724 26.3528 20.6334 26.4103V18.9035ZM19.26 18.9038V26.4087C18.9247 26.3509 18.623 26.2517 18.3843 26.1199L18.3837 26.1196L13.4948 23.4005C13.0737 23.1673 12.6507 22.7306 12.3311 22.1886C12.0115 21.6466 11.8345 21.0658 11.8345 20.586V15.4128C11.8345 15.1845 11.8746 14.9332 11.9511 14.6741L19.26 18.9038Z" fill="white"/>
</svg>
