<svg width="40" height="36" viewBox="0 0 40 36" fill="none" xmlns="http://www.w3.org/2000/svg">
<rect x="6" y="5" width="28" height="26" fill="#13100B"/>
<rect width="28" height="30" transform="matrix(1 0 0 -1 6 35)" fill="#26B34B"/>
<path fill-rule="evenodd" clip-rule="evenodd" d="M40 0H0V36H40V0ZM12.2574 12.698C12.2574 10.2991 14.2076 8.34885 16.6065 8.34885C19.0054 8.34885 20.9557 10.2991 20.9557 12.698C20.9465 15.0511 19.1061 16.9556 16.7622 17.038H16.7439H16.6981C16.6431 17.0288 16.5699 17.0288 16.4966 17.038C14.0977 16.9556 12.2574 15.0511 12.2574 12.698ZM11.9643 19.4734C14.5372 17.7704 18.7032 17.7704 21.2578 19.4734C22.4114 20.2425 23.0432 21.2863 23.0524 22.4125C23.0524 23.5478 22.4114 24.5916 21.2578 25.3699C19.9759 26.2306 18.2912 26.6609 16.6065 26.6609C14.9218 26.6609 13.237 26.2306 11.9552 25.3699C10.8015 24.6008 10.1606 23.557 10.1606 22.4308C10.1606 21.3046 10.8015 20.2517 11.9643 19.4734ZM26.6689 13.2383C26.8154 15.0146 25.5519 16.5711 23.8031 16.7817H23.7848H23.7573C23.7024 16.7817 23.6474 16.7817 23.6016 16.8C22.7135 16.8458 21.8986 16.5619 21.2852 16.0401C22.2282 15.1977 22.7684 13.9342 22.6586 12.5607C22.5945 11.8191 22.3381 11.1415 21.9535 10.5647C22.3015 10.3907 22.7043 10.2809 23.1164 10.2442C24.911 10.0886 26.5133 11.4254 26.6689 13.2383ZM26.9073 23.8866C27.8596 23.3647 28.4272 22.5956 28.5005 21.7075C28.5829 20.8285 28.1526 19.977 27.3102 19.2994C25.7445 18.0359 23.1991 17.6422 21.1756 18.2282C21.9539 18.512 22.6681 18.8966 23.2815 19.3818C24.3619 20.2517 24.9021 21.3413 24.8106 22.4766C24.7373 23.264 24.3528 24.0057 23.6935 24.6008C24.8381 24.6283 25.9917 24.3902 26.9073 23.8866Z" fill="white"/>
</svg>
