<svg width="40" height="36" viewBox="0 0 40 36" fill="none" xmlns="http://www.w3.org/2000/svg">
<rect x="6" y="5" width="28" height="26" fill="currentColor"/>
<rect width="28.3981" height="5" transform="matrix(1 0 0 -1 6 35)" fill="currentColor"/>
<path fill-rule="evenodd" clip-rule="evenodd" d="M40 0H0V36H40V0ZM14.3411 12.9015C14.3411 11.0365 15.8476 9.52287 17.7197 9.52287C19.5832 9.52287 21.0975 11.0367 21.0983 12.8999C21.0901 14.7171 19.6708 16.1894 17.8818 16.2698C17.7736 16.2619 17.6588 16.2623 17.5502 16.2699C15.7595 16.1903 14.3411 14.7171 14.3411 12.9015ZM17.7197 8.14946C15.0871 8.14946 12.9677 10.28 12.9677 12.9015C12.9677 15.4683 14.9908 17.5582 17.541 17.6439C17.5694 17.6449 17.5979 17.6441 17.6262 17.6415C17.6878 17.6359 17.7537 17.6365 17.7979 17.6409C17.8283 17.644 17.8588 17.645 17.8893 17.6439C20.44 17.5582 22.4611 15.4684 22.4717 12.9043L22.4717 12.9015C22.4717 10.279 20.3422 8.14946 17.7197 8.14946ZM24.5041 9.98068C24.1249 9.98068 23.8174 10.2881 23.8174 10.6674C23.8174 11.0466 24.1249 11.3541 24.5041 11.3541C25.8999 11.3541 27.0221 12.4829 27.0221 13.872C27.0221 15.2164 25.9661 16.3158 24.6415 16.3884C24.5301 16.3794 24.4171 16.3822 24.3093 16.3941C23.9323 16.436 23.6607 16.7755 23.7026 17.1525C23.7445 17.5294 24.084 17.801 24.4609 17.7592C24.4963 17.7552 24.5243 17.7563 24.538 17.7581C24.5748 17.7626 24.6118 17.7643 24.6489 17.7629C26.7281 17.685 28.3955 15.9738 28.3955 13.872C28.3955 11.7269 26.661 9.98068 24.5041 9.98068ZM22.8347 19.765C21.4434 18.8359 19.6432 18.3928 17.8778 18.3928C16.1121 18.3928 14.3083 18.836 12.9088 19.7639L12.9063 19.7656C11.6562 20.6024 10.9398 21.7714 10.9398 23.027C10.9398 24.2827 11.6563 25.4496 12.907 26.282C14.3025 27.2155 16.1049 27.6611 17.8709 27.6611C19.6372 27.6611 21.4399 27.2153 22.8354 26.2816L22.8356 26.2815C24.0857 25.4446 24.8021 24.2757 24.8021 23.0201C24.8021 21.7643 24.0855 20.5974 22.8347 19.765ZM12.3132 23.027C12.3132 22.3349 12.7044 21.5539 13.6691 20.9077C14.7966 20.1606 16.3205 19.7662 17.8778 19.7662C19.436 19.7662 20.9547 20.161 22.0722 20.9073L22.0732 20.908C23.0377 21.5496 23.4287 22.3282 23.4287 23.0201C23.4287 23.7125 23.0372 24.4938 22.0716 25.1402C20.9492 25.8911 19.4283 26.2877 17.8709 26.2877C16.3136 26.2877 14.7925 25.8911 13.6702 25.1401L13.6687 25.1391C12.7042 24.4974 12.3132 23.7189 12.3132 23.027ZM26.4498 19.1536C26.0798 19.0702 25.7123 19.3025 25.6289 19.6725C25.5455 20.0425 25.7778 20.41 26.1478 20.4934C26.7242 20.6233 27.2409 20.8449 27.6491 21.1567L27.6539 21.1603C28.2191 21.5842 28.4505 22.1006 28.4505 22.5657C28.4505 23.0309 28.2191 23.5473 27.6539 23.9712L27.6477 23.9759C27.2285 24.2978 26.7047 24.5254 26.1313 24.6449C25.76 24.7222 25.5217 25.0859 25.599 25.4572C25.6764 25.8285 26.0401 26.0668 26.4114 25.9894C27.1552 25.8344 27.8754 25.5318 28.4811 25.0676C29.3422 24.4204 29.8239 23.5186 29.8239 22.5657C29.8239 21.6126 29.342 20.7106 28.4804 20.0634C27.882 19.607 27.1726 19.3165 26.4498 19.1536Z" fill="white"/>
</svg>
