<svg width="40" height="36" viewBox="0 0 40 36" fill="none" xmlns="http://www.w3.org/2000/svg">
<rect x="6" y="5" width="28" height="26" fill="#13100B"/>
<rect width="28" height="30" transform="matrix(1 0 0 -1 6 35)" fill="#26B34B"/>
<path fill-rule="evenodd" clip-rule="evenodd" d="M40 0H0V36H40V0ZM17.4936 9.43263C17.0816 10.6412 16.7886 11.8956 16.5597 13.15C18.6839 12.9119 20.8264 12.9119 22.9506 13.15C22.7217 11.8956 22.4287 10.6504 22.0167 9.43263C22.0041 9.38205 22.0002 9.34021 21.9959 9.29504C21.994 9.27479 21.9921 9.25387 21.9893 9.23119C21.2751 9.05723 20.5243 8.94735 19.7552 8.94735C18.9769 8.94735 18.2353 9.05723 17.5119 9.23119C17.5083 9.26032 17.5075 9.28656 17.5068 9.3122C17.5057 9.35103 17.5046 9.38851 17.4936 9.43263ZM24.5166 13.3423C25.6977 13.5437 26.8605 13.8275 28.0142 14.1755C27.1078 12.2802 25.5787 10.7511 23.6834 9.84463C24.0405 10.9891 24.3243 12.1611 24.5166 13.3423ZM15.7725 26.2614C15.7588 26.2614 15.7428 26.266 15.7268 26.2705L15.7267 26.2705C15.7107 26.2751 15.6947 26.2797 15.681 26.2797C13.9047 25.4007 12.458 23.9449 11.5699 22.1686C11.5699 22.1549 11.5745 22.1388 11.5791 22.1228L11.5791 22.1228C11.5836 22.1068 11.5882 22.0908 11.5882 22.077C12.7052 22.4067 13.8589 22.6539 15.0034 22.8462C15.2049 23.9998 15.4429 25.1443 15.7725 26.2614ZM27.941 22.1778C27.0345 23.9998 25.5238 25.474 23.6834 26.3621C24.0313 25.1993 24.3243 24.0273 24.5166 22.8462C25.6703 22.6539 26.8056 22.4067 27.9227 22.077C27.9171 22.0991 27.9249 22.1211 27.9319 22.1412C27.9366 22.1544 27.941 22.1668 27.941 22.1778ZM15.7725 9.94542C15.4428 11.0625 15.2048 12.1978 15.0125 13.3515C13.8314 13.5346 12.6594 13.8276 11.4966 14.1755C12.3847 12.3352 13.8588 10.8244 15.6809 9.91795C15.6946 9.91795 15.7107 9.92482 15.7267 9.93169C15.7427 9.93855 15.7587 9.94542 15.7725 9.94542ZM14.8019 21.2987C13.5384 21.0698 12.2932 20.7768 11.0846 20.3648C11.0405 20.3538 11.003 20.3527 10.9642 20.3516H10.9641C10.9385 20.3509 10.9123 20.3501 10.8831 20.3465C10.7092 19.6231 10.5993 18.8815 10.5993 18.1032C10.5993 17.3341 10.7092 16.5833 10.8831 15.8691C10.9058 15.8663 10.9267 15.8644 10.9469 15.8625L10.9469 15.8625L10.947 15.8625C10.9922 15.8582 11.034 15.8543 11.0846 15.8417C12.3023 15.4388 13.5384 15.1367 14.8019 14.9078C14.573 17.032 14.573 19.1745 14.8019 21.2987ZM28.6278 20.3465C28.8017 19.6231 28.9116 18.8815 28.9116 18.1032C28.9116 17.3341 28.8017 16.5925 28.6278 15.8691C28.5545 15.8691 28.4996 15.86 28.4263 15.8417C27.2177 15.4297 25.9634 15.1367 24.709 14.9078C24.947 17.032 24.947 19.1745 24.709 21.2987C25.9634 21.0698 27.2086 20.7677 28.4263 20.3648C28.4705 20.3538 28.5079 20.3527 28.5468 20.3516H28.5468C28.5724 20.3509 28.5986 20.3501 28.6278 20.3465ZM22.9506 23.057C22.7217 24.3206 22.4287 25.5658 22.0167 26.7744C22.0041 26.825 22.0002 26.8668 21.9959 26.912C21.994 26.9322 21.9921 26.9532 21.9893 26.9758C21.2751 27.1498 20.5243 27.2597 19.7552 27.2597C18.9769 27.2597 18.2353 27.1498 17.5119 26.9758C17.5083 26.9467 17.5075 26.9205 17.5068 26.8948C17.5057 26.856 17.5046 26.8185 17.4936 26.7744C17.0907 25.5566 16.7886 24.3206 16.5597 23.057C17.6218 23.1761 18.6839 23.2585 19.7552 23.2585C20.8264 23.2585 21.8977 23.1761 22.9506 23.057ZM16.3096 21.5492C18.5997 21.8381 20.9111 21.8381 23.2011 21.5492C23.4901 19.2592 23.4901 16.9477 23.2011 14.6577C20.9111 14.3688 18.5997 14.3688 16.3096 14.6577C16.0207 16.9477 16.0207 19.2592 16.3096 21.5492Z" fill="white"/>
</svg>
