<svg width="40" height="36" viewBox="0 0 40 36" fill="none" xmlns="http://www.w3.org/2000/svg">
<rect x="6" y="5" width="28" height="26" fill="currentColor"/>
<rect width="28.3981" height="5" transform="matrix(1 0 0 -1 6 35)" fill="currentColor"/>
<path fill-rule="evenodd" clip-rule="evenodd" d="M40 0H0V36H40V0ZM11.5307 18.417C11.5307 17.7064 11.6182 17.0163 11.783 16.3567C11.8475 16.3545 11.9128 16.3431 11.9771 16.3216C13.099 15.947 14.2408 15.6531 15.3939 15.44C15.1721 17.4183 15.1721 19.4157 15.3939 21.3941C14.2408 21.181 13.099 20.8871 11.9771 20.5125C11.9137 20.4913 11.8483 20.4797 11.7831 20.4775C11.6182 19.8179 11.5307 19.1277 11.5307 18.417ZM15.5935 14.0104C14.5043 14.1925 13.4238 14.4427 12.3583 14.7608C13.1686 13.0704 14.5232 11.6906 16.1951 10.8484C16.2349 10.8568 16.2759 10.8617 16.3179 10.8629C16.0121 11.9 15.7706 12.9511 15.5935 14.0104ZM20.0001 9.94761C19.2894 9.94761 18.5992 10.0351 17.9397 10.2C17.9374 10.2652 17.9259 10.3306 17.9047 10.394C17.5301 11.5159 17.2362 12.6577 17.0231 13.8108C19.0014 13.589 20.9988 13.589 22.9772 13.8108C22.7641 12.6577 22.4702 11.5159 22.0956 10.394C22.0741 10.3297 22.0627 10.2644 22.0604 10.2C21.4009 10.0351 20.7107 9.94761 20.0001 9.94761ZM16.8034 21.6138C16.5335 19.4914 16.5335 17.3427 16.8034 15.2203C18.9258 14.9504 21.0744 14.9504 23.1969 15.2203C23.4667 17.3427 23.4667 19.4913 23.1969 21.6138C21.0744 21.8837 18.9258 21.8837 16.8034 21.6138ZM24.6063 21.3941C24.8281 19.4157 24.8282 17.4184 24.6063 15.44C25.7594 15.6531 26.9012 15.947 28.0231 16.3216C28.0874 16.3431 28.1526 16.3545 28.2171 16.3567C28.382 17.0163 28.4695 17.7064 28.4695 18.417C28.4695 19.1277 28.3819 19.8179 28.2171 20.4775C28.1518 20.4797 28.0865 20.4913 28.0231 20.5125C26.9012 20.8871 25.7594 21.1809 24.6063 21.3941ZM23.6564 10.7753C25.3966 11.6095 26.8077 13.0206 27.6418 14.7608C26.5764 14.4427 25.4959 14.1925 24.4068 14.0104C24.2247 12.9212 23.9745 11.8407 23.6564 10.7753ZM27.5687 22.222C27.5603 22.1822 27.5553 22.1412 27.5541 22.0993C26.5171 22.4051 25.4661 22.6465 24.4068 22.8237C24.2247 23.9128 23.9745 24.9933 23.6564 26.0587C25.3467 25.2484 26.7265 23.8938 27.5687 22.222ZM17.0231 23.0232C19.0014 23.2451 20.9988 23.2451 22.9772 23.0232C22.764 24.1763 22.4702 25.3181 22.0956 26.44C22.0741 26.5043 22.0627 26.5695 22.0604 26.634C21.4009 26.7989 20.7107 26.8864 20.0001 26.8864C19.2894 26.8864 18.5992 26.7988 17.9397 26.634C17.9374 26.5687 17.9259 26.5034 17.9047 26.44C17.5301 25.3181 17.2362 24.1763 17.0231 23.0232ZM16.1951 25.9856C16.2349 25.9772 16.2759 25.9722 16.3179 25.971C16.0121 24.9341 15.7706 23.883 15.5935 22.8237C14.5342 22.6466 13.4831 22.4051 12.446 22.0993C12.4448 22.1412 12.4399 22.1822 12.4315 22.222C13.2488 23.8445 14.5725 25.1683 16.1951 25.9856ZM20.0001 8.57419C14.5641 8.57419 10.1573 12.981 10.1573 18.417C10.1573 23.853 14.5641 28.2598 20.0001 28.2598C25.4361 28.2598 29.8429 23.853 29.8429 18.417C29.8429 12.981 25.4361 8.57419 20.0001 8.57419Z" fill="white"/>
</svg>
