<svg width="40" height="36" viewBox="0 0 40 36" fill="none" xmlns="http://www.w3.org/2000/svg">
<rect x="6" y="5" width="28" height="26" fill="#13100B"/>
<rect width="28" height="30" transform="matrix(1 0 0 -1 6 35)" fill="#26B34B"/>
<path fill-rule="evenodd" clip-rule="evenodd" d="M40 0H0V36H40V0ZM14.2618 9.49682H25.2491C27.2726 9.49682 28.9115 11.1266 28.9115 13.1318V22.3428C28.9115 24.348 27.2726 25.9778 25.2491 25.9778H14.2618C12.2383 25.9778 10.5994 24.348 10.5994 22.3428V13.1318C10.5994 11.1266 12.2383 9.49682 14.2618 9.49682ZM18.6659 15.43C18.6659 14.2671 17.7136 13.3149 16.5508 13.3149C15.388 13.3149 14.4358 14.2671 14.4358 15.43C14.4358 16.5928 15.388 17.545 16.5508 17.545C17.7136 17.545 18.6659 16.5928 18.6659 15.43ZM19.7555 22.1505C19.8836 22.1505 20.0118 22.0956 20.0942 22.004C20.1766 21.9125 20.2224 21.7843 20.2041 21.6561C20.0576 20.1179 18.8215 18.9001 17.2833 18.7536C16.798 18.7078 16.2945 18.7078 15.8092 18.7536C14.271 18.9001 13.044 20.1179 12.8884 21.6561C12.8792 21.7843 12.925 21.9125 13.0074 22.004C13.0898 22.0956 13.218 22.1505 13.3462 22.1505H19.7555ZM23.6468 21.3997C23.6468 21.7751 23.9581 22.0864 24.3335 22.0864H26.1647C26.5401 22.0864 26.8514 21.7751 26.8514 21.3997C26.8514 21.0243 26.5401 20.713 26.1647 20.713H24.3335C23.9581 20.713 23.6468 21.0243 23.6468 21.3997ZM22.5023 18.424H26.1647C26.5401 18.424 26.8514 18.1127 26.8514 17.7373C26.8514 17.3619 26.5401 17.0506 26.1647 17.0506H22.5023C22.1269 17.0506 21.8156 17.3619 21.8156 17.7373C21.8156 18.1127 22.1269 18.424 22.5023 18.424ZM21.5867 14.7616H26.1647C26.5401 14.7616 26.8514 14.4503 26.8514 14.0749C26.8514 13.6995 26.5401 13.3882 26.1647 13.3882H21.5867C21.2113 13.3882 20.9 13.6995 20.9 14.0749C20.9 14.4503 21.2113 14.7616 21.5867 14.7616Z" fill="white"/>
</svg>
