<svg width="40" height="36" viewBox="0 0 40 36" fill="none" xmlns="http://www.w3.org/2000/svg">
<rect x="6" y="5" width="28" height="26" fill="currentColor"/>
<rect width="28.3981" height="5" transform="matrix(1 0 0 -1 6 35)" fill="currentColor"/>
<path fill-rule="evenodd" clip-rule="evenodd" d="M40 0H0V36H40V0ZM11.5307 14.3883C11.5307 12.5522 11.7768 11.6798 12.2451 11.2115C12.7135 10.7432 13.5859 10.497 15.422 10.497H24.5781C26.4142 10.497 27.2866 10.7432 27.7549 11.2115C28.2233 11.6798 28.4694 12.5522 28.4694 14.3883V21.7132C28.4694 23.5493 28.2233 24.4217 27.7549 24.8901C27.2866 25.3584 26.4142 25.6046 24.5781 25.6046H15.422C13.5859 25.6046 12.7135 25.3584 12.2451 24.8901C11.7768 24.4217 11.5307 23.5493 11.5307 21.7132V14.3883ZM15.422 9.12359C13.5957 9.12359 12.1791 9.33525 11.274 10.2403C10.3689 11.1454 10.1572 12.562 10.1572 14.3883V21.7132C10.1572 23.5395 10.3689 24.9561 11.274 25.8612C12.1791 26.7663 13.5957 26.978 15.422 26.978H24.5781C26.4044 26.978 27.821 26.7663 28.7261 25.8612C29.6312 24.9561 29.8428 23.5395 29.8428 21.7132V14.3883C29.8428 12.562 29.6312 11.1454 28.7261 10.2403C27.821 9.33525 26.4044 9.12359 24.5781 9.12359H15.422ZM15.8248 15.7434C15.8248 15.2074 16.2593 14.7728 16.7954 14.7728C17.3314 14.7728 17.7659 15.2074 17.7659 15.7434C17.7659 16.2794 17.3314 16.7139 16.7954 16.7139C16.2593 16.7139 15.8248 16.2794 15.8248 15.7434ZM16.7954 13.3994C15.5008 13.3994 14.4514 14.4488 14.4514 15.7434C14.4514 17.0379 15.5008 18.0873 16.7954 18.0873C18.0899 18.0873 19.1393 17.0379 19.1393 15.7434C19.1393 14.4488 18.0899 13.3994 16.7954 13.3994ZM21.8313 13.7016C21.452 13.7016 21.1446 14.0091 21.1446 14.3883C21.1446 14.7676 21.452 15.0751 21.8313 15.0751H26.4093C26.7886 15.0751 27.096 14.7676 27.096 14.3883C27.096 14.0091 26.7886 13.7016 26.4093 13.7016H21.8313ZM22.7469 17.3641C22.3676 17.3641 22.0602 17.6715 22.0602 18.0508C22.0602 18.43 22.3676 18.7375 22.7469 18.7375H26.4093C26.7886 18.7375 27.096 18.43 27.096 18.0508C27.096 17.6715 26.7886 17.3641 26.4093 17.3641H22.7469ZM20.6836 21.9492C20.5237 20.2934 19.2107 18.9911 17.5562 18.8411C17.0538 18.791 16.5428 18.7913 16.033 18.8412C14.3846 19.0007 13.0676 20.2886 12.9072 21.9492C12.8708 22.3267 13.1473 22.6622 13.5248 22.6987C13.9023 22.7351 14.2379 22.4587 14.2743 22.0812C14.3703 21.0867 15.1589 20.3054 16.1655 20.2082L16.1665 20.2081C16.5894 20.1667 17.011 20.1668 17.4229 20.208L17.43 20.2087C18.4291 20.2982 19.2201 21.0829 19.3165 22.0812C19.353 22.4587 19.6885 22.7351 20.066 22.6987C20.4435 22.6622 20.72 22.3267 20.6836 21.9492ZM24.5781 21.0265C24.1988 21.0265 23.8914 21.334 23.8914 21.7132C23.8914 22.0925 24.1988 22.3999 24.5781 22.3999H26.4093C26.7886 22.3999 27.096 22.0925 27.096 21.7132C27.096 21.334 26.7886 21.0265 26.4093 21.0265H24.5781Z" fill="white"/>
</svg>
