<svg width="40" height="36" viewBox="0 0 40 36" fill="none" xmlns="http://www.w3.org/2000/svg">
<rect x="6" y="5" width="28" height="26" fill="#13100B"/>
<rect width="28" height="30" transform="matrix(1 0 0 -1 6 35)" fill="#26B34B"/>
<path fill-rule="evenodd" clip-rule="evenodd" d="M40 0H0V36H40V0ZM20.8538 9.25743L25.8897 11.1436C26.8511 11.5098 27.6385 12.6452 27.6293 13.6798V21.0963C27.6293 21.8379 27.1441 22.8084 26.5489 23.2571L21.5131 27.0202C20.6249 27.6886 19.1691 27.6886 18.281 27.0202L13.2451 23.2571C12.65 22.8176 12.1647 21.8379 12.1647 21.0963V13.6798C12.1647 12.6452 12.9521 11.5098 13.9227 11.1436L18.9585 9.25743C19.4804 9.06515 20.3319 9.06515 20.8538 9.25743ZM19.1508 20.2081L23.0879 16.271C23.3626 16.0055 23.3626 15.5568 23.0971 15.2913C22.8315 15.0258 22.3921 15.0258 22.1265 15.2913L18.6747 18.7431L17.6858 17.7543C17.4203 17.4888 16.9808 17.4888 16.7153 17.7543C16.4498 18.0198 16.4498 18.4593 16.7153 18.7248L18.1803 20.2081C18.3176 20.3455 18.4916 20.4095 18.6655 20.4095C18.8395 20.4095 19.0135 20.3455 19.1508 20.2081Z" fill="white"/>
</svg>
