<svg width="40" height="36" viewBox="0 0 40 36" fill="none" xmlns="http://www.w3.org/2000/svg">
<rect x="6" y="5" width="28" height="26" fill="currentColor"/>
<rect width="28.3981" height="5" transform="matrix(1 0 0 -1 6 35)" fill="currentColor"/>
<path fill-rule="evenodd" clip-rule="evenodd" d="M40 0H0V36H40V0ZM19.6987 7.83804C20.2557 7.83804 20.8464 7.91514 21.3326 8.09248L21.3383 8.09458L25.9067 9.8066L25.9071 9.80674L25.9072 9.80677C26.591 10.0626 27.1737 10.5759 27.5826 11.167C27.9917 11.7584 28.2666 12.4849 28.2666 13.2149V20.0179C28.2666 20.6945 28.0478 21.4259 27.7275 22.0627C27.4071 22.6998 26.9499 23.3119 26.4069 23.7177L26.4066 23.7179L22.4714 26.6556L22.4703 26.6564C21.685 27.2464 20.6792 27.5213 19.7056 27.5213C18.732 27.5213 17.7261 27.2463 16.9408 26.6563L16.9398 26.6556L13.0043 23.7177C12.4613 23.3119 12.0042 22.6998 11.6837 22.0627C11.3634 21.4259 11.1447 20.6945 11.1447 20.0179V13.2149C11.1447 12.4885 11.4202 11.764 11.829 11.1744C12.2377 10.585 12.8201 10.0719 13.5036 9.81607L13.5045 9.81575L18.0718 8.09501L18.0731 8.0945L18.0736 8.09432C18.554 7.91492 19.1426 7.83804 19.6987 7.83804ZM25.585 22.6173L25.5847 22.6176L21.6479 25.5564L21.6461 25.5578C21.1406 25.9379 20.4392 26.1479 19.7056 26.1479C18.972 26.1479 18.2707 25.9379 17.7651 25.5578L17.7633 25.5564L13.8265 22.6176L13.8262 22.6173C13.4994 22.373 13.1647 21.9506 12.9107 21.4456C12.6564 20.9401 12.5181 20.4218 12.5181 20.0179V13.2149C12.5181 12.8244 12.6729 12.3677 12.9577 11.957C13.2423 11.5464 13.6164 11.2402 13.9855 11.1022L13.9871 11.1016L18.5542 9.38092C18.7464 9.31865 19.2446 9.19758 19.6987 9.21145C20.1476 9.21145 20.5675 9.27587 20.8594 9.38181L25.4257 11.093C25.7947 11.231 26.1686 11.537 26.4531 11.9484C26.7376 12.3596 26.8931 12.8188 26.8931 13.2149V20.0179C26.8931 20.4218 26.7548 20.9401 26.5006 21.4456C26.2465 21.9506 25.9118 22.373 25.585 22.6173ZM22.8919 14.6156C23.1601 14.8838 23.1601 15.3186 22.8919 15.5868L18.9548 19.5239C18.6866 19.7921 18.2518 19.7921 17.9836 19.5239L16.5095 18.0498C16.2413 17.7816 16.2413 17.3468 16.5095 17.0786C16.7777 16.8104 17.2125 16.8104 17.4807 17.0786L18.4692 18.0672L21.9208 14.6156C22.1889 14.3475 22.6237 14.3475 22.8919 14.6156Z" fill="white"/>
</svg>
