<svg width="20" height="21" viewBox="0 0 20 21" fill="none" xmlns="http://www.w3.org/2000/svg">
<path d="M9.58332 18.625C4.87499 18.625 1.04166 14.7917 1.04166 10.0833C1.04166 5.37499 4.87499 1.54166 9.58332 1.54166C14.2917 1.54166 18.125 5.37499 18.125 10.0833C18.125 14.7917 14.2917 18.625 9.58332 18.625ZM9.58332 2.79166C5.55832 2.79166 2.29166 6.06666 2.29166 10.0833C2.29166 14.1 5.55832 17.375 9.58332 17.375C13.6083 17.375 16.875 14.1 16.875 10.0833C16.875 6.06666 13.6083 2.79166 9.58332 2.79166Z" fill="#989898"/>
<path d="M18.3333 19.4583C18.175 19.4583 18.0167 19.4 17.8917 19.275L16.225 17.6083C15.9833 17.3667 15.9833 16.9667 16.225 16.725C16.4667 16.4833 16.8667 16.4833 17.1083 16.725L18.775 18.3917C19.0167 18.6333 19.0167 19.0333 18.775 19.275C18.65 19.4 18.4917 19.4583 18.3333 19.4583Z" fill="#989898"/>
</svg>
